<svg width="25" height="25" viewBox="0 0 25 25" fill="none" xmlns="http://www.w3.org/2000/svg">
<path d="M19.9703 24.5009C19.4077 24.5009 18.9311 24.3056 18.5405 23.9149C18.1498 23.5243 17.9545 23.0477 17.9545 22.4852C17.9545 21.9226 18.1498 21.446 18.5405 21.0554C18.9311 20.6647 19.4077 20.4694 19.9703 20.4694C20.5328 20.4694 21.0094 20.6647 21.4001 21.0554C21.7907 21.446 21.9861 21.9226 21.9861 22.4852C21.9861 23.0477 21.7907 23.5243 21.4001 23.9149C21.0094 24.3056 20.5328 24.5009 19.9703 24.5009ZM19.9703 22.3914C19.939 22.3914 19.9156 22.4031 19.9 22.4266C19.8843 22.45 19.8765 22.4695 19.8765 22.4852C19.8765 22.532 19.9078 22.5555 19.9703 22.5555C20.0328 22.5555 20.064 22.532 20.064 22.4852C20.064 22.4695 20.0562 22.45 20.0406 22.4266C20.025 22.4031 20.0015 22.3914 19.9703 22.3914ZM9.46948 24.5009C8.90694 24.5009 8.43034 24.3056 8.03968 23.9149C7.64903 23.5243 7.4537 23.0477 7.4537 22.4852C7.4537 21.9226 7.64903 21.446 8.03968 21.0554C8.43034 20.6647 8.90694 20.4694 9.46948 20.4694C10.0164 20.4694 10.4891 20.6647 10.8876 21.0554C11.286 21.446 11.4853 21.9226 11.4853 22.4852C11.4853 23.0477 11.286 23.5243 10.8876 23.9149C10.4891 24.3056 10.0164 24.5009 9.46948 24.5009ZM9.46948 22.3914C9.43823 22.3914 9.41479 22.3992 9.39916 22.4148C9.38354 22.4305 9.37572 22.4539 9.37572 22.4852C9.37572 22.532 9.40307 22.5555 9.45776 22.5555C9.51245 22.5555 9.5398 22.532 9.5398 22.4852C9.5398 22.4695 9.53198 22.45 9.51636 22.4266C9.50073 22.4031 9.48511 22.3914 9.46948 22.3914ZM22.0798 19.2505H7.68809L3.44558 2.4211H0V0.499081H4.94569L5.76607 3.66339H24.33L21.7517 15.0315H8.57879L9.16477 17.3285H22.0798V19.2505ZM8.11 13.1094H20.275L21.9392 5.58541H6.23486L8.11 13.1094Z" fill="#4E4E4E"/>
</svg>
