<svg width="29" height="29" viewBox="0 0 29 29" fill="none" xmlns="http://www.w3.org/2000/svg">
<path d="M12.3187 21.475C11.1562 21.475 10.0687 21.25 9.05625 20.8C8.025 20.3313 7.12969 19.7031 6.37031 18.9156C5.61094 18.1281 5.01562 17.2094 4.58437 16.1594C4.15313 15.0906 3.9375 13.9563 3.9375 12.7563C3.9375 11.5563 4.15313 10.4219 4.58437 9.35315C5.01562 8.30315 5.61094 7.37971 6.37031 6.58284C7.12969 5.78596 8.025 5.16253 9.05625 4.71252C10.0687 4.26253 11.1562 4.03753 12.3187 4.03753C13.4625 4.03753 14.5406 4.26253 15.5531 4.71252C16.5844 5.16253 17.4797 5.78596 18.2391 6.58284C18.9984 7.37971 19.5938 8.30315 20.025 9.35315C20.4562 10.4219 20.6719 11.5563 20.6719 12.7563C20.6719 13.9563 20.4562 15.0906 20.025 16.1594C19.5938 17.2094 18.9984 18.1281 18.2391 18.9156C17.4797 19.7031 16.5844 20.3313 15.5531 20.8C14.5406 21.25 13.4625 21.475 12.3187 21.475ZM12.3187 5.78127C11.3812 5.78127 10.5094 5.9594 9.70312 6.31565C8.87812 6.69065 8.16563 7.19221 7.56562 7.82034C6.96562 8.44846 6.4875 9.1844 6.13125 10.0281C5.775 10.8906 5.59687 11.8 5.59687 12.7563C5.59687 13.7125 5.775 14.6219 6.13125 15.4844C6.4875 16.3281 6.96562 17.0641 7.56562 17.6922C8.16563 18.3203 8.87812 18.8219 9.70312 19.1969C10.5094 19.5531 11.3812 19.7313 12.3187 19.7313C13.2375 19.7313 14.1 19.5531 14.9062 19.1969C15.7312 18.8219 16.4437 18.3203 17.0437 17.6922C17.6437 17.0641 18.1219 16.3281 18.4781 15.4844C18.8344 14.6219 19.0125 13.7125 19.0125 12.7563C19.0125 11.8375 18.8438 10.9469 18.5062 10.0844C18.1687 9.2219 17.6812 8.46252 17.0437 7.80627C16.425 7.15002 15.7031 6.64846 14.8781 6.30159C14.0531 5.95471 13.2 5.78127 12.3187 5.78127ZM23.2031 24.9625C23.0906 24.9625 22.9828 24.9438 22.8797 24.9063C22.7766 24.8688 22.6875 24.8031 22.6125 24.7094L17.325 19.225C17.175 19.0563 17.1 18.85 17.1 18.6063C17.1 18.3625 17.175 18.1563 17.325 17.9875C17.4937 17.8188 17.6953 17.7344 17.9297 17.7344C18.1641 17.7344 18.3656 17.8188 18.5344 17.9875L23.7937 23.4719C23.8687 23.5469 23.9297 23.6406 23.9766 23.7531C24.0234 23.8656 24.0469 23.9781 24.0469 24.0906C24.0469 24.2031 24.0234 24.3156 23.9766 24.4281C23.9297 24.5406 23.8687 24.6344 23.7937 24.7094C23.7188 24.7844 23.6297 24.8453 23.5266 24.8922C23.4234 24.9391 23.3156 24.9625 23.2031 24.9625Z" fill="#858585"/>
</svg>
