<svg width="33" height="32" viewBox="0 0 33 32" fill="none" xmlns="http://www.w3.org/2000/svg">
<path d="M32.01 30.592C32.01 30.0373 31.8553 29.52 31.546 29.04C31.2367 28.56 30.826 28.2133 30.314 28L22.314 24.608V22.624C23.1887 21.536 23.7113 20.3093 23.882 18.944H25.514C26.282 18.944 26.9433 18.6667 27.498 18.112C28.0527 17.5573 28.33 16.896 28.33 16.128V12.096C28.33 11.392 28.1007 10.7733 27.642 10.24C27.1833 9.70667 26.602 9.39733 25.898 9.312C25.7913 6.26133 24.9007 3.94666 23.226 2.368C21.5513 0.789331 19.146 0 16.01 0C12.874 0 10.4687 0.789331 8.79401 2.368C7.11934 3.94666 6.22868 6.26133 6.12201 9.312C5.41801 9.39733 4.83668 9.70667 4.37801 10.24C3.91934 10.7733 3.69001 11.392 3.69001 12.096V16.128C3.69001 16.896 3.96734 17.5573 4.52201 18.112C5.07668 18.6667 5.73801 18.944 6.50601 18.944H8.13801C8.30868 20.3093 8.83134 21.536 9.70601 22.624V24.608L1.73801 28C1.22601 28.2133 0.81001 28.5547 0.49001 29.024C0.17001 29.4933 0.0100098 30.016 0.0100098 30.592V31.072C0.0100098 31.328 0.100676 31.5467 0.28201 31.728C0.463343 31.9093 0.68201 32 0.93801 32H31.082C31.338 32 31.5567 31.9093 31.738 31.728C31.9193 31.5467 32.01 31.328 32.01 31.072V30.592ZM20.458 25.28C20.458 25.9413 20.3513 26.592 20.138 27.232C19.9247 27.872 19.6047 28.448 19.178 28.96C18.7513 29.3653 18.2607 29.6693 17.706 29.872C17.1513 30.0747 16.586 30.1547 16.01 30.112C15.434 30.1547 14.874 30.08 14.33 29.888C13.786 29.696 13.3007 29.3973 12.874 28.992C12.4473 28.48 12.122 27.904 11.898 27.264C11.674 26.624 11.562 25.9627 11.562 25.28V24.288C12.9273 25.12 14.41 25.536 16.01 25.536C17.61 25.536 19.0927 25.12 20.458 24.288V25.28ZM22.09 17.504L20.298 18.688C19.722 19.072 19.082 19.264 18.378 19.264H16.81C16.554 19.264 16.3353 19.3547 16.154 19.536C15.9727 19.7173 15.882 19.9413 15.882 20.208C15.882 20.4747 15.9727 20.6987 16.154 20.88C16.3353 21.0613 16.554 21.152 16.81 21.152H18.378C19.4447 21.152 20.426 20.8533 21.322 20.256L21.706 20.032C21.2367 21.184 20.4793 22.0907 19.434 22.752C18.3887 23.4133 17.2473 23.7227 16.01 23.68C15.2207 23.7227 14.458 23.6053 13.722 23.328C12.986 23.0507 12.33 22.64 11.754 22.096C11.178 21.552 10.7353 20.9173 10.426 20.192C10.1167 19.4667 9.96201 18.7093 9.96201 17.92V10.336C10.3247 8.58667 10.8367 7.53067 11.498 7.168C11.7753 7.01867 12.1593 6.98667 12.65 7.072C12.9273 7.136 13.3753 7.28533 13.994 7.52C14.634 7.81867 15.306 8 16.01 8.064C16.714 8 17.386 7.81867 18.026 7.52L18.09 7.488C18.666 7.27467 19.082 7.136 19.338 7.072C19.786 6.98667 20.1487 7.01867 20.426 7.168C20.7033 7.31733 20.97 7.59467 21.226 8C21.5673 8.55467 21.8553 9.33333 22.09 10.336V17.504Z" fill="white"/>
</svg>
