<svg width="24" height="25" viewBox="0 0 24 25" fill="none" xmlns="http://www.w3.org/2000/svg">
<path d="M19.2188 3.78125H3.67969C2.96094 3.78125 2.35156 4.03516 1.85156 4.54297C1.35156 5.05078 1.10156 5.66406 1.10156 6.38281V15.125C1.10156 15.8438 1.35156 16.457 1.85156 16.9648C2.35156 17.4727 2.96094 17.7266 3.67969 17.7266H10.5938V19.4844H9.72656C9.49219 19.4844 9.28906 19.5703 9.11719 19.7422C8.94531 19.9141 8.85938 20.1172 8.85938 20.3516C8.85938 20.6016 8.94531 20.8086 9.11719 20.9727C9.28906 21.1367 9.49219 21.2188 9.72656 21.2188H13.1719C13.4219 21.2188 13.6289 21.1367 13.793 20.9727C13.957 20.8086 14.0391 20.6016 14.0391 20.3516C14.0391 20.1172 13.957 19.9141 13.793 19.7422C13.6289 19.5703 13.4219 19.4844 13.1719 19.4844H12.3281V17.7266H19.2188C19.9375 17.7266 20.5508 17.4727 21.0586 16.9648C21.5664 16.457 21.8203 15.8438 21.8203 15.125V6.38281C21.8203 5.66406 21.5664 5.05078 21.0586 4.54297C20.5508 4.03516 19.9375 3.78125 19.2188 3.78125ZM20.0859 15.125C20.0859 15.3594 20.0039 15.5625 19.8398 15.7344C19.6758 15.9062 19.4688 15.9922 19.2188 15.9922H3.67969C3.44531 15.9922 3.24219 15.9062 3.07031 15.7344C2.89844 15.5625 2.8125 15.3594 2.8125 15.125V6.38281C2.8125 6.14844 2.89844 5.94531 3.07031 5.77344C3.24219 5.60156 3.44531 5.51562 3.67969 5.51562H19.2188C19.4688 5.51562 19.6758 5.60156 19.8398 5.77344C20.0039 5.94531 20.0859 6.14844 20.0859 6.38281V15.125Z" fill="#858585"/>
</svg>
