<svg width="24" height="25" viewBox="0 0 24 25" fill="none" xmlns="http://www.w3.org/2000/svg">
<path d="M12.1172 13.2266C11.4141 13.2266 10.7422 13.0938 10.1016 12.8281C9.47656 12.5625 8.92969 12.1992 8.46094 11.7383C7.99219 11.2773 7.61719 10.7344 7.33594 10.1094C7.07031 9.5 6.9375 8.84375 6.9375 8.14062V4.50781C6.9375 4.30469 7.01172 4.13281 7.16016 3.99219C7.30859 3.85156 7.48438 3.78125 7.6875 3.78125H16.5703C16.7734 3.78125 16.9492 3.85156 17.0977 3.99219C17.2461 4.13281 17.3203 4.30469 17.3203 4.50781V8.14062C17.3203 8.84375 17.1875 9.5 16.9219 10.1094C16.6406 10.7344 16.2656 11.2773 15.7969 11.7383C15.3281 12.1992 14.7812 12.5625 14.1562 12.8281C13.5156 13.0938 12.8359 13.2266 12.1172 13.2266ZM8.41406 5.23438V8.14062C8.41406 9.14062 8.77734 9.99609 9.50391 10.707C10.2305 11.418 11.1016 11.7734 12.1172 11.7734C13.1484 11.7734 14.0273 11.418 14.7539 10.707C15.4805 9.99609 15.8438 9.14062 15.8438 8.14062V5.23438H8.41406ZM18.0703 5.23438H6.1875C5.98438 5.23438 5.8125 5.16406 5.67188 5.02344C5.53125 4.88281 5.46094 4.71094 5.46094 4.50781C5.46094 4.30469 5.53125 4.13281 5.67188 3.99219C5.8125 3.85156 5.98438 3.78125 6.1875 3.78125H18.0703C18.2734 3.78125 18.4453 3.85156 18.5859 3.99219C18.7266 4.13281 18.7969 4.30469 18.7969 4.50781C18.7969 4.71094 18.7266 4.88281 18.5859 5.02344C18.4453 5.16406 18.2734 5.23438 18.0703 5.23438ZM16.5703 21.2188H7.6875C7.48438 21.2188 7.30859 21.1484 7.16016 21.0078C7.01172 20.8672 6.9375 20.6953 6.9375 20.4922V16.8594C6.9375 16.1562 7.07031 15.5 7.33594 14.8906C7.61719 14.2656 7.99219 13.7227 8.46094 13.2617C8.92969 12.8008 9.47656 12.4375 10.1016 12.1719C10.7422 11.9062 11.4141 11.7734 12.1172 11.7734C12.8359 11.7734 13.5156 11.9062 14.1562 12.1719C14.7812 12.4375 15.3281 12.8008 15.7969 13.2617C16.2656 13.7227 16.6406 14.2656 16.9219 14.8906C17.1875 15.5 17.3203 16.1562 17.3203 16.8594V20.4922C17.3203 20.6953 17.2461 20.8672 17.0977 21.0078C16.9492 21.1484 16.7734 21.2188 16.5703 21.2188ZM8.41406 19.7656H15.8438V16.8594C15.8438 15.8594 15.4805 15.0039 14.7539 14.293C14.0273 13.582 13.1484 13.2266 12.1172 13.2266C11.1016 13.2266 10.2305 13.582 9.50391 14.293C8.77734 15.0039 8.41406 15.8594 8.41406 16.8594V19.7656ZM18.0703 21.2188H6.1875C5.98438 21.2188 5.8125 21.1484 5.67188 21.0078C5.53125 20.8672 5.46094 20.6953 5.46094 20.4922C5.46094 20.2891 5.53125 20.1172 5.67188 19.9766C5.8125 19.8359 5.98438 19.7656 6.1875 19.7656H18.0703C18.2734 19.7656 18.4453 19.8359 18.5859 19.9766C18.7266 20.1172 18.7969 20.2891 18.7969 20.4922C18.7969 20.6953 18.7266 20.8672 18.5859 21.0078C18.4453 21.1484 18.2734 21.2188 18.0703 21.2188ZM16.5703 17.5859H7.6875C7.48438 17.5859 7.30859 17.5156 7.16016 17.375C7.01172 17.2344 6.9375 17.0625 6.9375 16.8594C6.9375 16.6562 7.01172 16.4844 7.16016 16.3438C7.30859 16.2031 7.48438 16.1328 7.6875 16.1328H16.5703C16.7734 16.1328 16.9492 16.2031 17.0977 16.3438C17.2461 16.4844 17.3203 16.6562 17.3203 16.8594C17.3203 17.0625 17.2461 17.2344 17.0977 17.375C16.9492 17.5156 16.7734 17.5859 16.5703 17.5859Z" fill="#858585"/>
</svg>
