<svg width="1923" height="412" viewBox="0 0 1923 412" fill="none" xmlns="http://www.w3.org/2000/svg">
<path fill-rule="evenodd" clip-rule="evenodd" d="M1529.98 31.5712C1282.94 14.9709 1051.27 46.9218 802.918 58.3968C461.499 74.1715 193.86 54.7059 0 0L2.26074 412H1922.78L1923 73.4456C1790.7 54.246 1659.7 40.2878 1529.98 31.5712Z" fill="#F3F8FE"/>
<path d="M1450 372.241H1453.16L1455.42 378.68H1455.45L1457.64 372.241H1460.74V384.968H1458.82V374.377H1458.79L1456.23 381.959H1454.51L1451.96 374.377H1451.93V384.968H1450V372.241Z" fill="#333333"/>
<path d="M1462.55 378.589C1462.55 374.076 1463.84 372 1466.76 372C1469.68 372 1470.97 374.076 1470.97 378.589C1470.97 383.133 1469.68 385.179 1466.76 385.179C1463.84 385.209 1462.55 383.133 1462.55 378.589ZM1468.93 378.559C1468.93 374.287 1467.96 373.535 1466.76 373.535C1465.56 373.535 1464.59 374.287 1464.59 378.559C1464.59 382.922 1465.56 383.674 1466.76 383.674C1467.96 383.674 1468.93 382.922 1468.93 378.559Z" fill="#333333"/>
<path d="M1472.75 372.241H1476.87C1478.76 372.241 1480.3 373.083 1480.3 375.31C1480.3 376.844 1479.7 377.807 1478.43 378.198V378.228C1479.82 378.469 1480.72 379.312 1480.72 381.478C1480.72 383.584 1479.19 384.938 1476.81 384.938H1472.75V372.241ZM1476.39 377.596C1477.62 377.596 1478.25 376.784 1478.25 375.581C1478.25 374.076 1477.35 373.775 1476.21 373.775H1474.79V377.596H1476.39ZM1476.78 383.434C1477.98 383.434 1478.64 382.651 1478.64 381.177C1478.64 379.793 1477.83 379.011 1476.66 379.011H1474.76V383.434H1476.78Z" fill="#333333"/>
<path d="M1484.24 372.241H1482.22V384.938H1484.24V372.241Z" fill="#333333"/>
<path d="M1486.26 372.241H1489.87C1493.87 372.241 1494.35 374.828 1494.35 378.589C1494.35 382.35 1493.84 384.938 1489.87 384.938H1486.26V372.241ZM1488.27 383.434H1489.96C1491.64 383.434 1492.33 382.32 1492.33 378.619C1492.33 375.039 1491.73 373.805 1489.96 373.805H1488.27V383.434Z" fill="#333333"/>
<path d="M1498.08 372.241H1496.07V384.938H1498.08V372.241Z" fill="#333333"/>
<path d="M1507.92 380.395V380.666C1507.92 382.952 1506.99 385.209 1504.01 385.209C1500.82 385.209 1499.8 383.133 1499.8 378.62C1499.8 374.076 1500.79 372.03 1504.01 372.03C1507.62 372.03 1507.83 374.708 1507.83 376.002V376.213H1505.81V376.002C1505.81 374.829 1505.45 373.475 1504.01 373.535C1502.5 373.535 1501.84 374.467 1501.84 378.559C1501.84 382.652 1502.5 383.675 1504.01 383.675C1505.69 383.675 1505.9 381.779 1505.9 380.605V380.395H1507.92Z" fill="#333333"/>
<path d="M1509.33 372.241H1511.38V377.777H1511.41L1515.26 372.241H1517.49L1513.82 377.596L1517.88 384.968H1515.56L1512.49 379.251L1511.38 380.846V384.968H1509.33V372.241Z" fill="#333333"/>
</svg>
