<svg width="33" height="33" viewBox="0 0 33 33" fill="none" xmlns="http://www.w3.org/2000/svg">
<path d="M28 0H5C2.23858 0 0 2.23858 0 5V28C0 30.7614 2.23858 33 5 33H28C30.7614 33 33 30.7614 33 28V5C33 2.23858 30.7614 0 28 0Z" fill="#225AFF"/>
<mask id="mask0_20_127" style="mask-type:luminance" maskUnits="userSpaceOnUse" x="0" y="0" width="33" height="33">
<path d="M28 0H5C2.23858 0 0 2.23858 0 5V28C0 30.7614 2.23858 33 5 33H28C30.7614 33 33 30.7614 33 28V5C33 2.23858 30.7614 0 28 0Z" fill="white"/>
</mask>
<g mask="url(#mask0_20_127)">
<path d="M24.4351 20.6482L24.423 20.7486C21.4794 19.2815 21.1715 19.0861 20.7913 19.6563C20.5276 20.0512 19.7593 20.9467 19.5277 21.2118C19.2934 21.4728 19.0605 21.4929 18.6629 21.3122C18.2613 21.1114 16.9723 20.6897 15.4462 19.3243C14.2575 18.2601 13.4597 16.955 13.2241 16.5534C12.8319 15.876 13.6525 15.7797 14.3994 14.3661C14.5333 14.085 14.465 13.8641 14.366 13.6646C14.2656 13.4639 13.4664 11.4961 13.1318 10.7117C12.8105 9.9299 12.4798 10.029 12.2322 10.029C11.4612 9.96202 10.8976 9.97273 10.401 10.4894C8.24043 12.8642 8.78525 15.3138 10.6339 17.9188C14.2669 22.6736 16.2025 23.549 19.7419 24.7645C20.6976 25.0684 21.5691 25.0255 22.2585 24.9265C23.0268 24.8046 24.6238 23.9613 24.9571 23.0176C25.2985 22.0739 25.2985 21.2908 25.1981 21.1101C25.099 20.9293 24.8366 20.8289 24.4351 20.6482Z" stroke="black" stroke-width="1.5"/>
</g>
</svg>
