<svg width="33" height="33" viewBox="0 0 33 33" fill="none" xmlns="http://www.w3.org/2000/svg">
<path d="M33 0H0V33H33V0Z" fill="#0077B5"/>
<mask id="mask0_20_532" style="mask-type:luminance" maskUnits="userSpaceOnUse" x="0" y="0" width="33" height="33">
<path d="M33 0H0V33H33V0Z" fill="white"/>
</mask>
<g mask="url(#mask0_20_532)">
<path d="M22.997 23.0001L23 22.9996V18.5986C23 16.4456 22.5365 14.7871 20.0195 14.7871C18.8095 14.7871 17.9975 15.4511 17.666 16.0806H17.631V14.9881H15.2445V22.9996H17.7295V19.0326C17.7295 17.9881 17.9275 16.9781 19.221 16.9781C20.4955 16.9781 20.5145 18.1701 20.5145 19.0996V23.0001H22.997Z" fill="white"/>
<path d="M11.198 14.9883H13.686V22.9998H11.198V14.9883Z" fill="white"/>
<path d="M12.441 11C11.6455 11 11 11.6455 11 12.441C11 13.2365 11.6455 13.8955 12.441 13.8955C13.2365 13.8955 13.882 13.2365 13.882 12.441C13.8815 11.6455 13.236 11 12.441 11Z" fill="white"/>
</g>
</svg>
