<svg width="33" height="33" viewBox="0 0 33 33" fill="none" xmlns="http://www.w3.org/2000/svg">
<path d="M28 0H5C2.23858 0 0 2.23858 0 5V28C0 30.7614 2.23858 33 5 33H28C30.7614 33 33 30.7614 33 28V5C33 2.23858 30.7614 0 28 0Z" fill="#CC5BE8"/>
<mask id="mask0_20_725" style="mask-type:luminance" maskUnits="userSpaceOnUse" x="0" y="0" width="33" height="33">
<path d="M28 0H5C2.23858 0 0 2.23858 0 5V28C0 30.7614 2.23858 33 5 33H28C30.7614 33 33 30.7614 33 28V5C33 2.23858 30.7614 0 28 0Z" fill="white"/>
</mask>
<g mask="url(#mask0_20_725)">
<path d="M9 13.1667L17 18.9444L25 12.4444M11.5639 11H22.4361C23.3276 11 23.6509 11.0928 23.9768 11.2671C24.3028 11.4414 24.5586 11.6972 24.7329 12.0232C24.9072 12.3491 25 12.6724 25 13.5639V21.4361C25 22.3276 24.9072 22.6509 24.7329 22.9768C24.5586 23.3028 24.3028 23.5586 23.9768 23.7329C23.6509 23.9072 23.3276 24 22.4361 24H11.5639C10.6724 24 10.3491 23.9072 10.0232 23.7329C9.69723 23.5586 9.44144 23.3028 9.26713 22.9768C9.09283 22.6509 9 22.3276 9 21.4361V13.5639C9 12.6724 9.09283 12.3491 9.26713 12.0232C9.44144 11.6972 9.69723 11.4414 10.0232 11.2671C10.3491 11.0928 10.6724 11 11.5639 11Z" stroke="black" stroke-width="1.5"/>
</g>
</svg>
