<svg width="33" height="33" viewBox="0 0 33 33" fill="none" xmlns="http://www.w3.org/2000/svg">
<path d="M28 0H5C2.23858 0 0 2.23858 0 5V28C0 30.7614 2.23858 33 5 33H28C30.7614 33 33 30.7614 33 28V5C33 2.23858 30.7614 0 28 0Z" fill="#25D366"/>
<mask id="mask0_20_92" style="mask-type:luminance" maskUnits="userSpaceOnUse" x="0" y="0" width="33" height="33">
<path d="M28 0H5C2.23858 0 0 2.23858 0 5V28C0 30.7614 2.23858 33 5 33H28C30.7614 33 33 30.7614 33 28V5C33 2.23858 30.7614 0 28 0Z" fill="white"/>
</mask>
<g mask="url(#mask0_20_92)">
<path d="M21.4008 18.1672L21.3944 18.2204C19.8368 17.444 19.6739 17.3406 19.4727 17.6424C19.3332 17.8513 18.9266 18.3252 18.804 18.4655C18.6801 18.6036 18.5568 18.6142 18.3465 18.5186C18.134 18.4123 17.4518 18.1892 16.6443 17.4667C16.0153 16.9036 15.5932 16.213 15.4685 16.0005C15.261 15.642 15.6952 15.591 16.0904 14.843C16.1613 14.6943 16.1251 14.5774 16.0727 14.4719C16.0196 14.3656 15.5967 13.3244 15.4196 12.9093C15.2496 12.4956 15.0747 12.548 14.9436 12.548C14.5356 12.5126 14.2374 12.5183 13.9746 12.7917C12.8314 14.0483 13.1197 15.3445 14.0979 16.723C16.0203 19.239 17.0445 19.7022 18.9174 20.3454C19.4231 20.5062 19.8843 20.4835 20.249 20.4311C20.6556 20.3666 21.5007 19.9204 21.677 19.421C21.8577 18.9216 21.8577 18.5072 21.8045 18.4116C21.7521 18.316 21.6133 18.2629 21.4008 18.1672Z" fill="black"/>
<path d="M23.535 10.4761C18.0886 5.21102 9.07508 9.02965 9.07154 16.4572C9.07154 17.9419 9.46042 19.3897 10.2013 20.6683L9 25.033L13.4873 23.8629C19.0867 26.8874 25.9972 22.8712 26 16.4615C26 14.2118 25.1217 12.0946 23.5244 10.5037L23.535 10.4761ZM24.5848 16.4381C24.5805 21.8448 18.6454 25.2214 13.9513 22.4618L13.6962 22.3102L11.04 23.0008L11.7519 20.4189L11.5826 20.1533C8.66142 15.5031 12.0175 9.4256 17.551 9.4256C19.4309 9.4256 21.1954 10.1587 22.5242 11.4869C23.8523 12.8036 24.5848 14.5681 24.5848 16.4381Z" fill="black"/>
</g>
</svg>
