<svg width="33" height="33" viewBox="0 0 33 33" fill="none" xmlns="http://www.w3.org/2000/svg">
<path d="M33 0H0V33H33V0Z" fill="#EF0075"/>
<mask id="mask0_20_852" style="mask-type:luminance" maskUnits="userSpaceOnUse" x="0" y="0" width="33" height="33">
<path d="M33 0H0V33H33V0Z" fill="white"/>
</mask>
<g mask="url(#mask0_20_852)">
<path d="M16.003 12.3784C13.4507 12.3784 11.3845 14.4469 11.3845 16.9969C11.3845 19.5492 13.453 21.6154 16.003 21.6154C18.5552 21.6154 20.6215 19.5469 20.6215 16.9969C20.6215 14.4447 18.553 12.3784 16.003 12.3784ZM16.003 19.9947C14.3462 19.9947 13.0052 18.6529 13.0052 16.9969C13.0052 15.3409 14.347 13.9992 16.003 13.9992C17.659 13.9992 19.0007 15.3409 19.0007 16.9969C19.0015 18.6529 17.6597 19.9947 16.003 19.9947Z" fill="black"/>
<path d="M19.711 8.05703C18.055 7.97978 13.9532 7.98353 12.2957 8.05703C10.8392 8.12528 9.55449 8.47703 8.51874 9.51278C6.78774 11.2438 7.00899 13.5763 7.00899 16.997C7.00899 20.498 6.81399 22.7765 8.51874 24.4813C10.2565 26.2183 12.6227 25.991 16.003 25.991C19.471 25.991 20.668 25.9933 21.8942 25.5185C23.5615 24.8713 24.82 23.381 24.943 20.7043C25.021 19.0475 25.0165 14.9465 24.943 13.289C24.7945 10.1293 23.0987 8.21303 19.711 8.05703ZM22.3322 23.336C21.1975 24.4708 19.6232 24.3695 15.9812 24.3695C12.2312 24.3695 10.7275 24.425 9.63024 23.3248C8.36649 22.067 8.59524 20.0473 8.59524 16.985C8.59524 12.8413 8.16999 9.85703 12.3287 9.64403C13.2842 9.61028 13.5655 9.59903 15.9707 9.59903L16.0045 9.62153C20.0012 9.62153 23.137 9.20303 23.3252 13.361C23.368 14.3098 23.3777 14.5948 23.3777 16.9963C23.377 20.7028 23.4475 22.2155 22.3322 23.336Z" fill="black"/>
<path d="M20.8045 13.2757C21.4006 13.2757 21.8837 12.7925 21.8837 12.1964C21.8837 11.6004 21.4006 11.1172 20.8045 11.1172C20.2084 11.1172 19.7253 11.6004 19.7253 12.1964C19.7253 12.7925 20.2084 13.2757 20.8045 13.2757Z" fill="black"/>
</g>
</svg>
