<svg width="33" height="33" viewBox="0 0 33 33" fill="none" xmlns="http://www.w3.org/2000/svg">
<path d="M33 0H0V33H33V0Z" fill="#FF0000"/>
<mask id="mask0_20_867" style="mask-type:luminance" maskUnits="userSpaceOnUse" x="0" y="0" width="33" height="33">
<path d="M33 0H0V33H33V0Z" fill="white"/>
</mask>
<g mask="url(#mask0_20_867)">
<path d="M24.6025 12.8417L24.625 12.9884C24.4079 12.2181 23.8218 11.6238 23.077 11.4075L23.0613 11.4037C21.6608 11.0234 16.025 11.0234 16.025 11.0234C16.025 11.0234 10.4035 11.016 8.98879 11.4037C8.22977 11.6238 7.64291 12.2181 7.42958 12.9727L7.42584 12.9884C6.90261 15.7213 6.89887 19.0051 7.44904 21.9312L7.42584 21.7829C7.64291 22.5532 8.22902 23.1475 8.97382 23.3639L8.98953 23.3676C10.3886 23.7486 16.0258 23.7486 16.0258 23.7486C16.0258 23.7486 21.6466 23.7486 23.062 23.3676C23.8218 23.1475 24.4087 22.5532 24.622 21.7987L24.6257 21.7829C24.8638 20.5119 25 19.0493 25 17.5552C25 17.5006 25 17.4452 24.9993 17.3898C25 17.3389 25 17.2782 25 17.2176C25 15.7228 24.8638 14.2601 24.6025 12.8417ZM14.2271 20.1189V14.6599L18.9174 17.3935L14.2271 20.1189Z" fill="black"/>
</g>
</svg>
