<svg width="40" height="32" viewBox="0 0 40 32" fill="none" xmlns="http://www.w3.org/2000/svg">
<path d="M15.6943 32L4.06613 20.7868L1.87067 18.0329C0.432164 16.2298 -0.210275 13.8738 0.0606666 11.3964C0.407025 8.23612 2.17233 5.16336 4.90689 2.95965C9.95422 -1.10351 16.8088 -0.965252 20.183 3.26439L21.0796 4.3874L22.8533 2.95965C27.9006 -1.10351 34.7551 -0.965252 38.1293 3.26439C39.5678 5.06742 40.2103 7.42349 39.9393 9.90089C39.593 13.0611 37.8277 16.1367 35.0931 18.3376L31.6742 21.0831L15.6943 32ZM6.95152 18.1034L16.1132 26.9408L29.4173 17.8523L32.6546 15.2479C34.582 13.696 35.8193 11.5911 36.0512 9.46918C36.1601 8.46186 36.0819 7.00025 35.0819 5.74461C33.0541 3.19949 28.6603 3.33775 25.2917 6.04935L20.4734 9.92629L17.1356 5.74179C15.1077 3.19667 10.714 3.33493 7.34536 6.04653C5.41804 7.59843 4.18065 9.70338 3.94882 11.8253C3.83988 12.8326 3.91809 14.2942 4.91806 15.5498L6.95431 18.1034H6.95152Z" fill="#3B4AFF"/>
</svg>
