<svg width="40" height="42" viewBox="0 0 40 42" fill="none" xmlns="http://www.w3.org/2000/svg">
<path d="M30.7549 4.6209L31.7626 0H17.8966L16.889 4.6209H26.134L21.0957 27.7287H11.8506L16.889 4.6209H3.02299L0 18.4869L8.2374 23.1078L7.22974 27.7287L13.1485 32.3528L12.1409 36.9737H5.21115L4.20349 41.5947H22.6904L23.698 36.9737H16.765L17.7727 32.3528L25.7134 27.7287H25.7166L26.7243 23.1078L36.977 18.4869L40 4.6209H30.7549ZM9.24507 18.4869L5.12637 16.1748L6.63949 9.24181H11.2604L9.24507 18.4869ZM32.855 16.1781L27.7319 18.4869L29.7473 9.24181H34.3714L32.855 16.1781Z" fill="#3B4AFF"/>
</svg>
