<svg width="41" height="47" viewBox="0 0 41 47" fill="none" xmlns="http://www.w3.org/2000/svg">
<path d="M13.0633 42.1374L17.6711 42.3545L22.2789 42.5717L22.2798 42.5686L26.8906 42.7866L28.0571 38.4332L23.4463 38.2152L18.8385 37.998L14.2307 37.7809L13.0633 42.1374ZM24.6718 16.2278L29.2796 16.445L24.6128 33.8618L20.005 33.6446L24.6718 16.2278ZM35.0578 12.3065L30.4469 12.0885L25.8391 11.8713L21.2313 11.6542L22.3978 7.30073L27.0056 7.51789L31.6134 7.73505L36.2243 7.95303L36.2251 7.94996L40.8329 8.16712L32.6658 38.6472L28.058 38.4301L35.0578 12.3065ZM15.4531 15.7927L20.064 16.0107L15.3972 33.4274L10.7863 33.2094L15.4531 15.7927ZM6.2375 15.3583L10.8453 15.5755L6.17849 32.9923L1.57069 32.7751L6.2375 15.3583Z" fill="#3B4AFF"/>
</svg>
