<svg width="40" height="37" viewBox="0 0 40 37" fill="none" xmlns="http://www.w3.org/2000/svg">
<path d="M23.111 23.0719L22.1034 27.6961H12.8583L13.866 23.0719H23.111ZM34.316 9.20594C33.9801 7.31779 33.2105 5.57639 32.0398 4.12849C29.8908 1.46747 26.6623 0 22.9447 0C16.9183 0 11.1658 3.80238 8.28958 9.20594H3.02299L0 23.0719H4.6209L3.61324 27.6961H8.2374C8.2374 27.6961 11.1887 14.0225 11.2408 13.8301C11.2637 13.7453 11.2897 13.6605 11.3158 13.5757C12.8257 8.59938 17.9553 4.5459 22.9447 4.5459C25.2601 4.5459 27.2363 5.41008 28.5048 6.9819C29.8516 8.65482 30.3734 10.9376 29.8321 13.4388L27.8852 22.4719C26.7634 27.6635 21.5523 32.0724 16.4357 32.3235L15.415 36.9346C15.5878 36.9411 15.7672 36.9444 15.9433 36.9444C23.4502 36.9444 30.6375 30.9702 32.2681 23.4274L32.3431 23.0719H36.977L40 9.20594H34.316Z" fill="#3B4AFF"/>
</svg>
